HIERARCHY
ROOT hip
{
  OFFSET 0 0 0
  CHANNELS 6 Xposition Yposition Zposition Zrotation Yrotation Xrotation
  JOINT abdomen
  {
    OFFSET 0 20.6881 -0.73152
    CHANNELS 3 Zrotation Xrotation Yrotation
    JOINT chest
    {
      OFFSET 0 11.7043 -0.48768
      CHANNELS 3 Zrotation Xrotation Yrotation
      JOINT neck
      {
        OFFSET 0 22.1894 -2.19456
        CHANNELS 3 Zrotation Xrotation Yrotation
        JOINT head
        {
          OFFSET -0.24384 7.07133 1.2192
          CHANNELS 3 Zrotation Xrotation Yrotation
          JOINT leftEye
          {
            OFFSET 4.14528 8.04674 8.04672
            CHANNELS 3 Zrotation Xrotation Yrotation
            End Site
            {
              OFFSET 1 0 0
            }
          }
          JOINT rightEye
          {
            OFFSET -3.6576 8.04674 8.04672
            CHANNELS 3 Zrotation Xrotation Yrotation
            End Site
            {
              OFFSET 1 0 0
            }
          }
        }
      }
      JOINT rCollar
      {
        OFFSET -2.68224 19.2634 -4.8768
        CHANNELS 3 Zrotation Xrotation Yrotation
        JOINT rShldr
        {
          OFFSET -8.77824 -1.95073 1.46304
          CHANNELS 3 Zrotation Xrotation Yrotation
          JOINT rForeArm
          {
            OFFSET -28.1742 -1.7115 0.48768
            CHANNELS 3 Zrotation Xrotation Yrotation
            JOINT rHand
            {
              OFFSET -22.5879 0.773209 7.07136
              CHANNELS 3 Zrotation Xrotation Yrotation
              JOINT rThumb1
              {
                OFFSET -1.2192 -0.487915 3.41376
                CHANNELS 3 Zrotation Xrotation Yrotation
                JOINT rThumb2
                {
                  OFFSET -3.37035 -0.52449 3.41376
                  CHANNELS 3 Zrotation Xrotation Yrotation
                  End Site
                  {
                    OFFSET -1.78271 -1.18214 1.43049
                  }
                }
              }
              JOINT rIndex1
              {
                OFFSET -7.75947 0.938293 5.60832
                CHANNELS 3 Zrotation Xrotation Yrotation
                JOINT rIndex2
                {
                  OFFSET -2.54057 -0.884171 1.56538
                  CHANNELS 3 Zrotation Xrotation Yrotation
                  End Site
                  {
                    OFFSET -1.62519 -0.234802 1.16502
                  }
                }
              }
              JOINT rMid1
              {
                OFFSET -8.24714 1.18213 3.41376
                CHANNELS 3 Zrotation Xrotation Yrotation
                JOINT rMid2
                {
                  OFFSET -3.10165 -0.590103 1.0647
                  CHANNELS 3 Zrotation Xrotation Yrotation
                  End Site
                  {
                    OFFSET -2.48547 -0.328903 0.83742
                  }
                }
              }
              JOINT rRing1
              {
                OFFSET -8.82822 0.546677 1.51678
                CHANNELS 3 Zrotation Xrotation Yrotation
                JOINT rRing2
                {
                  OFFSET -2.60934 -0.819778 -0.0198488
                  CHANNELS 3 Zrotation Xrotation Yrotation
                  End Site
                  {
                    OFFSET -2.33842 -0.294052 0.168128
                  }
                }
              }
              JOINT rPinky1
              {
                OFFSET -8.27202 -0.0477905 -0.4584
                CHANNELS 3 Zrotation Xrotation Yrotation
                JOINT rPinky2
                {
                  OFFSET -1.82734 -0.647385 -0.700984
                  CHANNELS 3 Zrotation Xrotation Yrotation
                  End Site
                  {
                    OFFSET -1.69225 -0.51767 -0.607171
                  }
                }
              }
            }
          }
        }
      }
      JOINT lCollar
      {
        OFFSET 2.68224 19.2634 -4.8768
        CHANNELS 3 Zrotation Xrotation Yrotation
        JOINT lShldr
        {
          OFFSET 8.77824 -1.95073 1.46304
          CHANNELS 3 Zrotation Xrotation Yrotation
          JOINT lForeArm
          {
            OFFSET 28.1742 -1.7115 0.48768
            CHANNELS 3 Zrotation Xrotation Yrotation
            JOINT lHand
            {
              OFFSET 22.5879 0.773209 7.07136
              CHANNELS 3 Zrotation Xrotation Yrotation
              JOINT lThumb1
              {
                OFFSET 1.2192 -0.487915 3.41376
                CHANNELS 3 Zrotation Xrotation Yrotation
                JOINT lThumb2
                {
                  OFFSET 3.37035 -0.52449 3.41376
                  CHANNELS 3 Zrotation Xrotation Yrotation
                  End Site
                  {
                    OFFSET 1.78271 -1.18214 1.43049
                  }
                }
              }
              JOINT lIndex1
              {
                OFFSET 7.75947 0.938293 5.60832
                CHANNELS 3 Zrotation Xrotation Yrotation
                JOINT lIndex2
                {
                  OFFSET 2.54057 -0.884171 1.56538
                  CHANNELS 3 Zrotation Xrotation Yrotation
                  End Site
                  {
                    OFFSET 1.62519 -0.234802 1.16502
                  }
                }
              }
              JOINT lMid1
              {
                OFFSET 8.24714 1.18213 3.41376
                CHANNELS 3 Zrotation Xrotation Yrotation
                JOINT lMid2
                {
                  OFFSET 3.10165 -0.590103 1.0647
                  CHANNELS 3 Zrotation Xrotation Yrotation
                  End Site
                  {
                    OFFSET 2.48547 -0.328903 0.83742
                  }
                }
              }
              JOINT lRing1
              {
                OFFSET 8.82822 0.546677 1.51678
                CHANNELS 3 Zrotation Xrotation Yrotation
                JOINT lRing2
                {
                  OFFSET 2.60934 -0.819778 -0.0198488
                  CHANNELS 3 Zrotation Xrotation Yrotation
                  End Site
                  {
                    OFFSET 2.33842 -0.294052 0.168128
                  }
                }
              }
              JOINT lPinky1
              {
                OFFSET 8.27202 -0.0477905 -0.4584
                CHANNELS 3 Zrotation Xrotation Yrotation
                JOINT lPinky2
                {
                  OFFSET 1.82734 -0.647385 -0.700984
                  CHANNELS 3 Zrotation Xrotation Yrotation
                  End Site
                  {
                    OFFSET 1.69225 -0.51767 -0.607171
                  }
                }
              }
            }
          }
        }
      }
    }
  }
  JOINT rButtock
  {
    OFFSET -8.77824 4.35084 1.2192
    CHANNELS 3 Zrotation Xrotation Yrotation
    JOINT rThigh
    {
      OFFSET 0 -1.70687 -2.19456
      CHANNELS 3 Zrotation Xrotation Yrotation
      JOINT rShin
      {
        OFFSET 0 -36.8199 0.73152
        CHANNELS 3 Zrotation Xrotation Yrotation
        JOINT rFoot
        {
          OFFSET 0.73152 -45.1104 -5.12064
          CHANNELS 3 Zrotation Xrotation Yrotation
          End Site
          {
            OFFSET -1.1221 -3.69964 12.103
          }
        }
      }
    }
  }
  JOINT lButtock
  {
    OFFSET 8.77824 4.35084 1.2192
    CHANNELS 3 Zrotation Xrotation Yrotation
    JOINT lThigh
    {
      OFFSET 0 -1.70687 -2.19456
      CHANNELS 3 Zrotation Xrotation Yrotation
      JOINT lShin
      {
        OFFSET 0 -36.8199 0.73152
        CHANNELS 3 Zrotation Xrotation Yrotation
        JOINT lFoot
        {
          OFFSET -0.73152 -45.1104 -5.12064
          CHANNELS 3 Zrotation Xrotation Yrotation
          End Site
          {
            OFFSET 1.1221 -3.69964 12.103
          }
        }
      }
    }
  }
}
MOTION
Frames:	6
Frame Time:	0.00833333
-36.831399999999995 80.4066 -20.3925 -51.537969 -86.863472 58.059786 4.175556 -10.721492 129.533817 -7.454975 12.003461 -118.985884 6.685911 19.172939 53.328867 -14.17694 -7.113948 -62.039698 -0.003018 0.0 -0.002165 -0.001702 -0.0 0.003397 -29.637771 58.070561 32.03833 -54.336996 13.790812 0.335227 11.452182 3.057668 -162.053406 -150.069733 31.980268 128.447233 -163.619903 -1.298345 89.45404 49.041897 -63.402705 39.088362 -77.667705 43.031427 64.538183 83.668336 -64.405211 37.014999 23.901691 -61.334216 1.397653 -114.337 59.215548 104.540593 0.004346 1.772262 0.55719 -155.55623 -1.105844 171.980095 -74.133524 -51.747189 -72.617709 2.264184 -2.994288 -1.846644 85.53761 68.183171 -88.688941 -3.658156 26.4376 -63.846899 -5.795674 -6.203253 95.307867 -155.396121 -36.794125 -138.859919 171.706288 -9.388355 -89.948731 53.410891 -10.169981 -11.408577 157.327107 -28.217842 -122.489918 144.788191 15.307481 -115.473761 125.643061 49.839586 -115.273859 163.586257 -6.254304 -143.228717 0.001705 -0.060633 0.020467 -9.239975 12.719599 -1.666446 -26.972671 80.122499 -10.139796 -81.885526 85.794514 44.261771 0.001266 7.1e-05 0.001583 15.186 -39.560079 -59.175089 -35.538307 16.488881 98.515791 136.582733 -53.13676 25.501986 -0.00029 7.1e-05 0.000373 7.789086 -27.330567 -163.409372 -53.792387 -73.001431 -163.810642 -9.418629 27.001388 -53.249779
-37.9776 80.2158 -20.8134 -68.732693 -86.02259 75.195696 7.566867 -6.185631 -0.0 -5.38688 -16.694952 7.708421 10.151045 22.647469 80.550169 -20.961673 3.613577 -85.984437 0.002366 0.0 0.000167 0.002366 0.0 0.000167 -158.467673 -30.055426 166.920426 -3.604894 -59.625248 -73.99863 -1.163556 -29.765783 -164.93252 -161.974147 11.981483 139.02458 -164.492472 -2.167318 89.561768 -148.543689 2.414459 74.724881 -166.822504 -43.973897 122.060421 -86.127072 55.95896 70.182739 23.902003 -61.334163 1.397538 -5.168213 21.272813 4.521975 -145.111007 -0.627821 -178.93198 -152.355063 -24.841871 -175.377144 -124.850417 -29.038025 -122.621174 -127.502574 -27.971153 -125.816529 151.162449 17.966699 -156.41988 -162.199068 6.892893 -127.796901 25.197515 -38.696922 -39.210182 1.380436 20.395887 -2.413067 159.652602 2.600348 -88.799183 -112.214026 -56.565673 -77.957813 -1.50676 -2.484754 0.827474 9.253322 25.621119 -8.234807 158.522308 -0.192347 -142.144189 139.182368 43.184637 -127.064281 71.926803 72.974189 -89.771803 106.106773 82.212609 -115.255345 135.822042 -11.893076 133.186447 160.532958 52.810895 146.986863 179.987895 75.749135 0.008282 -163.912038 33.746421 -137.05519 -41.710406 -16.952322 -161.688149 -12.716541 11.043751 -85.920855 -0.0 0.000506 0.001133 11.095041 -31.841584 -159.609555 -80.248888 -85.753366 -21.781934 -25.818231 24.817399 123.133122
-39.133 80.1316 -21.2222 -75.937121 -85.112028 82.174485 8.663556 -10.210445 -180.0 3.9174 11.25748 -173.454172 2.707037 15.568627 24.139272 -6.228907 -12.799225 -26.890806 0.003115 -0.0 -0.002615 0.003115 -0.0 -0.002615 -158.762413 -59.604768 173.334182 -18.910067 87.388534 93.804676 112.534494 68.577031 74.883987 -127.541039 51.952713 105.55049 -78.030612 38.689461 42.412642 -22.594821 -4.780005 33.939106 -158.230716 -29.848465 122.587716 5.550628 13.643567 -7.179263 -160.09745 -4.901512 142.96807 -10.917176 32.160955 8.965598 -0.012801 -1.323356 -0.414596 -77.323984 78.799553 90.841997 -1.148893 -2.91468 -1.064776 -127.267574 -31.004415 -125.737263 33.837688 -85.665795 55.254593 -129.66819 36.332823 138.28458 158.192869 -80.357166 105.779358 7.56183 38.38643 -3.294387 0.543694 0.536305 -0.086211 44.179929 27.600481 -40.0107 -10.746422 -19.04819 4.724731 -174.773231 -43.76607 -102.178312 -7.902874 -24.807803 3.013775 163.016062 -3.712788 -143.217002 0.021691 -1.727181 0.5409 155.920352 -12.559275 -173.352087 150.035975 28.96605 145.934488 128.363906 -27.936287 125.454149 -179.83544 75.748867 -0.126832 -162.425121 36.39384 -17.322511 8.428638 44.238561 100.050559 -89.481949 -48.91111 -174.926669 179.986887 75.750661 0.01157 -166.943869 39.878825 57.700144 89.083265 33.130177 173.945836 -1.07068 -12.549469 110.048386
-40.2656 80.02 -21.6279 -79.365975 -84.091579 85.236062 9.170113 -9.287137 -180.0 2.181637 10.320471 -175.317277 -8.091451 30.943349 -115.084827 24.554509 21.382717 113.564921 0.002074 0.0 0.001631 0.002074 0.0 0.001631 -81.707544 68.337352 84.818773 -179.033427 -61.626088 -131.49668 -151.450389 4.739547 -0.074135 -177.725542 -34.354135 148.119291 5.513705 -5.499514 -0.586504 -30.768389 25.1078 24.516732 11.981655 -21.34675 -5.061994 -158.444814 -12.85607 110.842449 -125.643949 49.840062 115.274318 16.169554 -37.009331 -0.538884 -145.111786 -0.66802 -178.917246 12.19346 44.699716 -3.868583 -138.442574 -6.230452 -135.660381 -152.993167 29.776235 -145.168618 0.218117 1.287362 -0.288827 -44.390095 -23.51683 32.161415 23.428164 -30.678163 -36.677781 0.794968 18.70074 -2.481563 169.149434 -6.830068 -89.917288 96.200306 10.71644 -39.083678 173.385027 -52.451579 -119.982194 -87.255175 -68.553721 -32.020062 0.058672 0.167774 -0.031357 10.680394 32.268068 -8.527587 0.000251 -0.018618 0.005119 52.820715 -86.667685 74.32267 110.053958 -41.781936 108.127274 -3.161905 -0.364402 1.477334 0.005979 -0.000618 0.00299 20.325273 -36.714154 -114.703185 -47.493068 -19.486091 -97.576671 -152.245178 4.922149 170.338712 179.989997 75.750416 0.006844 -164.949015 34.179556 -180.0 -104.203229 -74.683575 152.694925 47.457862 -85.292993 -74.226633
-41.4323 79.9271 -21.9845 -81.180273 -83.110724 86.429621 9.249431 -8.246496 180.0 0.070624 9.227177 -177.413436 7.57941 16.21082 47.247339 -17.665812 -6.425987 -46.158525 1.7e-05 -0.0 -0.003675 0.001343 0.0 0.001869 -13.74392 42.431515 15.569266 134.707939 9.150513 155.346816 161.034941 3.544473 -0.710504 -122.090693 56.408581 99.477824 2.463131 -2.44582 -0.327708 12.821495 -21.052045 -11.761635 -90.225386 41.073297 75.797024 5.392458 1.159668 -5.063559 173.125855 -66.298112 137.615322 -42.519246 58.33174 36.42457 -145.098745 -1.521572 -178.648917 -150.156386 -35.341472 -172.96522 -149.517231 27.029727 -145.518747 -151.363655 22.439301 -143.943825 143.620553 38.233594 -148.08108 -76.036279 -20.988945 -82.978926 42.994494 14.570364 55.021891 -76.256158 -65.396621 -65.205708 -88.928208 -50.831692 -37.599802 15.664609 -43.115832 30.207194 173.599797 -52.692654 -119.894902 -35.304785 -38.351236 7.088149 39.289727 53.365647 -32.878584 179.609259 -48.731054 -141.315647 75.67288 -72.116214 92.828913 150.613996 -14.269926 -178.275743 140.975747 -0.02187 138.019443 9.822633 -24.057141 12.490716 -179.990314 75.750459 -0.006628 -159.905741 36.833468 148.606726 19.252205 -43.966038 103.71521 144.58621 59.366363 -53.275659 -0.004294 0.000296 -0.004294 15.872485 -42.116184 109.475666 93.916488 -4.227262 -170.843229 -7.979091 -1.502791 91.233026
-42.721900000000005 79.9296 -22.259999999999998 -80.705327 -82.306596 85.014359 7.064694 -3.684448 62.592063 -8.597588 -9.075546 -63.166447 -8.204427 19.442927 -52.070916 22.321844 -6.904505 59.809957 0.003858 -0.0 -0.003323 -0.001701 0.0 -0.001948 -150.168522 21.535396 155.275755 91.858285 39.24061 -88.875179 7.962749 59.518779 131.81628 -11.637913 -5.733721 -3.374507 -121.364042 30.328362 71.956962 -113.794707 -7.03356 62.93317 19.569559 -35.040035 -5.985479 -5.954113 26.855843 7.083453 -160.09808 -4.901681 142.967067 -153.9465 19.916399 138.337325 -75.672403 -72.11643 -92.828849 -65.097386 -82.30363 -91.057317 -86.170884 -50.468127 -84.540249 3.691068 0.739123 -0.804414 155.460337 -3.227781 -161.777512 -103.486651 -27.482373 -128.730679 -160.146614 -42.762189 152.648974 19.440512 60.834225 -10.254878 -3.024911 -3.006633 0.388583 127.233234 -19.821848 -114.047805 -169.567563 -65.842377 -109.956134 176.272048 -45.323977 -111.8494 165.290318 -21.384978 -144.90237 5.153825 21.244201 -4.806151 -0.004942 1.854473 -0.582148 146.886923 49.118335 -161.24913 143.936889 8.265261 140.720134 -1.546823 -2.064737 2.641477 -0.001215 0.001405 0.0 20.544732 -33.608483 -180.0 0.70918 -38.223497 -162.40422 29.201335 -23.697942 -18.680546 -0.005904 -0.00144 -0.003936 18.013381 -43.631334 12.907867 150.810768 76.178548 -0.111685 -132.939309 5.915934 132.752197
